Coordinates
version=1
nRows=4
nColumns=107
inDegrees=yes

Units are S.I. units (second, meters, Newtons, ...)
If the header above contains a line with 'inDegrees', this indicates whether rotational values are in degrees (yes) or radians (no).

endheader
time	sternoclavicular_r2	sternoclavicular_r3	unrotscap_r3	unrotscap_r2	acromioclavicular_r2	acromioclavicular_r3	acromioclavicular_r1	unrothum_r1	unrothum_r3	unrothum_r2	elv_angle	shoulder_elv	shoulder1_r2	shoulder_rot	elbow_flexion	pro_sup	deviation	flexion	proximal_distal_r1	proximal_distal_r3	cmc_flexion	cmc_abduction	mp_flexion	ip_flexion	mcp2_flexion	mcp2_abduction	pm2_flexion	md2_flexion	mcp3_flexion	mcp3_abduction	pm3_flexion	md3_flexion	mcp4_flexion	mcp4_abduction	pm4_flexion	md4_flexion	mcp5_flexion	mcp5_abduction	pm5_flexion	md5_flexion	bicpt_tx	bicpt_ty	bicpt_tz	bicpt2_tx	bicpt2_ty	bicpt2_tz	ptpt_tx	ptpt_ty	ptpt_tz	FCUpt_tx	FCUpt_ty	FCUpt_tz	EDCpt_tx	EDCpt_ty	EDCpt_tz	APLpt_tx	APLpt_ty	APLpt_tz	FPLpt_tx	FPLpt_ty	FPLpt_tz	FPLpt2_tx	FPLpt2_ty	FPLpt2_tz	PEC1pt2_tx	PEC1pt2_ty	PEC1pt2_tz	PEC1pt3_tx	PEC1pt3_ty	PEC1pt3_tz	PEC2pt2_tx	PEC2pt2_ty	PEC2pt2_tz	PEC2pt3_tx	PEC2pt3_ty	PEC2pt3_tz	PEC3pt2_tx	PEC3pt2_ty	PEC3pt2_tz	PEC3pt3_tx	PEC3pt3_ty	PEC3pt3_tz	DELT2pt2a_tx	DELT2pt2a_ty	DELT2pt2a_tz	DELT2pt2_tx	DELT2pt2_ty	DELT2pt2_tz	LAT1pt2_tx	LAT1pt2_ty	LAT1pt2_tz	LAT1pt3_tx	LAT1pt3_ty	LAT1pt3_tz	LAT2pt2_tx	LAT2pt2_ty	LAT2pt2_tz	LAT2pt3_tx	LAT2pt3_ty	LAT2pt3_tz	LAT3pt2_tx	LAT3pt2_ty	LAT3pt2_tz	LAT3pt3_tx	LAT3pt3_ty	LAT3pt3_tz
      0.86666667	     -0.31548161	      0.13362312	     -0.13362312	      0.31548161	     -0.06387861	      0.51624445	      0.23204833	     -0.23204833	     -0.51624445	      0.06387861	    100.49954869	     74.69307556	     -1.75404802	    -35.10877067	     31.65398732	     87.80165537	      0.38077442	     -0.41455140	      0.39808987	     -0.20727570	     42.72431809	    -20.52725538	     14.55286096	      9.38921914	     77.83127424	     11.87485224	     66.65449417	     78.97311639	     85.93052737	     -1.68070675	     73.88325695	     51.87023891	     82.67611956	    -13.81979676	     86.65833221	     40.00076622	     93.39551112	    -14.35674554	     84.90601515	      5.42670756	      0.00094702	     -0.03122803	     -0.00488438	      0.01404996	     -0.01879896	     -0.00076523	      0.00106245	     -0.06909496	     -0.00712289	      0.01294547	     -0.18217626	      0.00013464	     -0.01053617	      0.00367738	     -0.00081595	      0.00028024	      0.00011210	      0.00056049	      0.00035871	      0.00107613	      0.00060532	     -0.00000590	     -0.00005401	     -0.00006482	      0.00244828	      0.00858971	      0.00597545	     -0.00800876	      0.01933722	     -0.01834132	      0.00244828	      0.00858971	      0.00597545	      0.00053945	      0.01792635	     -0.00941963	      0.00389175	      0.00477663	      0.01582864	      0.00000000	      0.00745924	      0.00000000	     -0.00701286	     -0.03240852	     -0.00614863	      0.02096820	     -0.00093495	     -0.01013695	     -0.00087142	      0.01460666	     -0.00597545	      0.00240678	      0.02108006	     -0.01742840	     -0.00585096	      0.01265634	     -0.00535301	     -0.01219988	      0.02672355	     -0.02991875	     -0.02290590	      0.01415020	     -0.00717884	     -0.01518760	      0.03087316	     -0.03738807
      0.90000000	     -0.31422682	      0.13309165	     -0.13309165	      0.31422682	     -0.06362454	      0.51419115	      0.23112538	     -0.23112538	     -0.51419115	      0.06362454	    100.59703650	     74.39599304	     -1.75574950	    -35.72071944	     32.10065299	     88.01554641	      0.38674401	     -0.31971973	      0.40244169	     -0.15985986	     42.52514615	    -20.03927118	     14.13275378	      9.42817582	     70.20386864	     12.33155558	     62.64023768	     82.00256671	     76.87950610	     -0.75874044	     73.45142522	     52.64189635	     72.50742932	    -13.48688612	     86.75366021	     42.33259996	     81.04095282	    -14.39791066	     87.76593600	      5.40058270	      0.00096179	     -0.03127923	     -0.00489263	      0.01402692	     -0.01892030	     -0.00072803	      0.00104664	     -0.06910518	     -0.00714012	      0.01297017	     -0.18216890	      0.00014084	     -0.01056184	      0.00368925	     -0.00082304	      0.00024151	      0.00009661	      0.00048303	      0.00030914	      0.00092741	      0.00052167	     -0.00000632	     -0.00005847	     -0.00007016	      0.00243854	      0.00855555	      0.00595168	     -0.00797691	      0.01926031	     -0.01826836	      0.00243854	      0.00855555	      0.00595168	      0.00053730	      0.01785505	     -0.00938217	      0.00388032	      0.00475763	      0.01579998	      0.00000000	      0.00739964	      0.00000000	     -0.00698496	     -0.03227962	     -0.00609913	      0.02119514	     -0.00095669	     -0.01047196	     -0.00086795	      0.01454856	     -0.00595168	      0.00239721	      0.02099622	     -0.01735908	     -0.00582769	      0.01260600	     -0.00533172	     -0.01215136	      0.02661726	     -0.02979975	     -0.02281479	      0.01409392	     -0.00715029	     -0.01512720	      0.03075037	     -0.03723936
      0.93333333	     -0.31144909	      0.13191513	     -0.13191513	      0.31144909	     -0.06306211	      0.50964575	      0.22908226	     -0.22908226	     -0.50964575	      0.06306211	    100.90598736	     73.73834031	     -1.76114171	    -37.43195765	     32.95019353	     88.10201576	      0.39169892	     -0.18414110	      0.40600880	     -0.09207055	     42.01118606	    -18.65586095	     13.52319191	      9.51959859	     59.68480304	     12.72415927	     55.76453519	     81.63957930	     63.79329944	      0.56202614	     71.10107960	     53.17953189	     57.68960671	    -12.51353377	     86.00106690	     45.34104155	     62.05314511	    -14.42499708	     91.82026982	      5.47290780	      0.00098989	     -0.03137660	     -0.00490831	      0.01401757	     -0.01915108	     -0.00071298	      0.00104026	     -0.06910931	     -0.00714709	      0.01298016	     -0.18216593	      0.00014336	     -0.01057222	      0.00369405	     -0.00082591	      0.00016001	      0.00006400	      0.00032002	      0.00020481	      0.00061443	      0.00034562	     -0.00000735	     -0.00006976	     -0.00008371	      0.00241698	      0.00847992	      0.00589907	     -0.00790640	      0.01909005	     -0.01810687	      0.00241698	      0.00847992	      0.00589907	      0.00053256	      0.01769722	     -0.00929923	      0.00385492	      0.00471557	      0.01573578	      0.00000000	      0.00726858	      0.00000000	     -0.00692322	     -0.03199427	     -0.00599025	      0.02180324	     -0.00101790	     -0.01142845	     -0.00086028	      0.01441995	     -0.00589907	      0.00237602	      0.02081062	     -0.01720563	     -0.00577617	      0.01249456	     -0.00528459	     -0.01204394	      0.02638196	     -0.02953633	     -0.02261311	      0.01396933	     -0.00708708	     -0.01499348	      0.03047854	     -0.03691017
      0.96666667	     -0.30422029	      0.12885335	     -0.12885335	      0.30422029	     -0.06159842	      0.49781676	      0.22376521	     -0.22376521	     -0.49781676	      0.06159842	    103.35112282	     72.02685698	     -1.80381738	    -46.05632524	     33.08996163	     88.08625063	      0.33597451	     -0.24680564	      0.36357257	     -0.12340282	     41.03930173	    -13.16995195	     10.70583049	     11.86744736	     51.07429970	     12.90796702	     40.25111680	     66.29158583	     49.80219036	      2.52557502	     56.84477804	     43.96915361	     39.54852479	     -8.51022564	     75.00426992	     46.16668857	     34.84708085	    -14.42792409	     90.04059162	      5.55270926	      0.00099451	     -0.03139262	     -0.00491089	      0.01401928	     -0.01918905	     -0.00071572	      0.00104142	     -0.06910856	     -0.00714582	      0.01297833	     -0.18216647	      0.00014290	     -0.01057033	      0.00369317	     -0.00082539	      0.00020157	      0.00008063	      0.00040315	      0.00025802	      0.00077405	      0.00043540	     -0.00000905	     -0.00009034	     -0.00010841	      0.00236088	      0.00828310	      0.00576215	     -0.00772289	      0.01864697	     -0.01768661	      0.00236088	      0.00828310	      0.00576215	      0.00052019	      0.01728646	     -0.00908339	      0.00378807	      0.00460612	      0.01556372	      0.00000000	      0.00693314	      0.00000000	     -0.00676253	     -0.03125168	     -0.00571150	      0.02427172	     -0.00133429	     -0.01663316	     -0.00084031	      0.01408526	     -0.00576215	      0.00232087	      0.02032760	     -0.01680628	     -0.00564211	      0.01220456	     -0.00516193	     -0.01176440	      0.02576963	     -0.02885078	     -0.02208825	      0.01364510	     -0.00692259	     -0.01464547	      0.02977113	     -0.03605347
